<?xml version="1.0" ?><svg height="64" id="svg8" version="1.1" viewBox="0 0 16.933333 16.933333" width="64" xmlns="http://www.w3.org/2000/svg" xmlns:cc="http://creativecommons.org/ns#" xmlns:dc="http://purl.org/dc/elements/1.1/" xmlns:inkscape="http://www.inkscape.org/namespaces/inkscape" xmlns:rdf="http://www.w3.org/1999/02/22-rdf-syntax-ns#" xmlns:sodipodi="http://sodipodi.sourceforge.net/DTD/sodipodi-0.dtd" xmlns:svg="http://www.w3.org/2000/svg"><defs id="defs2"/><g id="layer2"><path d="M 5.8208332,7.9375 H 11.1125 V 8.9958333 H 5.8208332 Z" id="rect8724" style="opacity:1;fill:#e2e7fa;fill-opacity:1;stroke:none;stroke-width:0.52916664;stroke-linecap:butt;stroke-linejoin:round;stroke-miterlimit:4;stroke-dasharray:none;stroke-dashoffset:0;stroke-opacity:1"/><path d="M 10.583333,7.9374999 V 8.4666666 H 5.8208333 V 8.9958332 H 11.1125 V 7.9374999 Z" id="path8729" style="opacity:1;fill:#c4d2f0;fill-opacity:1;stroke:none;stroke-width:0.52916664;stroke-linecap:butt;stroke-linejoin:round;stroke-miterlimit:4;stroke-dasharray:none;stroke-dashoffset:0;stroke-opacity:1"/><path d="m 5.5562503,8.99582 h 5.8208337 c 0.293158,0 0.529166,0.2360083 0.529166,0.5291664 V 10.58332 c 0,0.293158 -0.236008,0.529166 -0.529166,0.529166 H 5.5562503 c -0.2931582,0 -0.5291664,-0.236008 -0.5291664,-0.529166 V 9.5249864 c 0,-0.2931581 0.2360082,-0.5291664 0.5291664,-0.5291664 z" id="rect8711" style="fill:#a8c5f7;fill-opacity:1;stroke:none;stroke-width:0.529167;stroke-linecap:round;stroke-linejoin:round;stroke-miterlimit:4;stroke-dasharray:none"/><path d="m 11.377083,8.9958331 v 1.0583329 c 0,0.293159 -0.236008,0.529167 -0.529166,0.529167 H 5.0270833 c 0,0.293158 0.2360086,0.529167 0.5291666,0.529167 h 5.8208331 c 0.293158,0 0.529167,-0.236009 0.529167,-0.529167 V 9.5249998 c 0,-0.2931581 -0.236009,-0.5291667 -0.529167,-0.5291667 z" id="path8722" style="fill:#91b8fb;fill-opacity:1;stroke:none;stroke-width:0.529167;stroke-linecap:round;stroke-linejoin:round;stroke-miterlimit:4;stroke-dasharray:none"/><path d="m 5.5562503,5.8208203 h 5.8208337 c 0.293158,0 0.529166,0.2360082 0.529166,0.5291664 V 7.40832 c 0,0.2931582 -0.236008,0.5291664 -0.529166,0.5291664 H 5.5562503 c -0.2931582,0 -0.5291664,-0.2360082 -0.5291664,-0.5291664 V 6.3499867 c 0,-0.2931582 0.2360082,-0.5291664 0.5291664,-0.5291664 z" id="rect8713" style="fill:#a8c5f7;fill-opacity:1;stroke:none;stroke-width:0.529167;stroke-linecap:round;stroke-linejoin:round;stroke-miterlimit:4;stroke-dasharray:none"/><path d="m 11.377083,5.8208333 v 1.0583333 c 0,0.293158 -0.236008,0.5291666 -0.529166,0.5291666 H 5.0270833 c 0,0.2931581 0.2360086,0.5291667 0.5291666,0.5291667 h 5.8208331 c 0.293158,0 0.529167,-0.2360086 0.529167,-0.5291667 V 6.3499999 c 0,-0.293158 -0.236009,-0.5291666 -0.529167,-0.5291666 z" id="rect8719" style="fill:#91b8fb;fill-opacity:1;stroke:none;stroke-width:0.529167;stroke-linecap:round;stroke-linejoin:round;stroke-miterlimit:4;stroke-dasharray:none"/><path d="m 7.4083337,12.964571 h 2.1166667 c 0.2931583,0 0.5291666,0.236008 0.5291666,0.529167 v 1.058333 c 0,0.293158 -0.2360083,0.529167 -0.5291666,0.529167 H 7.4083337 c -0.2931583,0 -0.5291666,-0.236009 -0.5291666,-0.529167 v -1.058333 c 0,-0.293159 0.2360083,-0.529167 0.5291666,-0.529167 z" id="rect8707" style="fill:#e2e7fa;fill-opacity:1;stroke:none;stroke-width:0.52916801;stroke-linecap:round;stroke-linejoin:round;stroke-miterlimit:4;stroke-dasharray:none"/><path d="m 9.5249995,12.964583 v 1.058334 c 0,0.293158 -0.236008,0.529166 -0.529166,0.529166 H 6.8791664 c 0,0.293159 0.2360081,0.529167 0.5291671,0.529167 h 2.116666 c 0.293159,0 0.5291675,-0.236008 0.5291675,-0.529167 V 13.49375 c 0,-0.293158 -0.2360085,-0.529167 -0.5291675,-0.529167 z" id="path8709" style="fill:#c4d2f0;fill-opacity:1;stroke:none;stroke-width:0.52916801;stroke-linecap:round;stroke-linejoin:round;stroke-miterlimit:4;stroke-dasharray:none"/><path d="m 1.3229169,6.8791666 h 2.1166667 c 0.2931583,0 0.5291666,0.2360083 0.5291666,0.5291666 v 1.0583333 c 0,0.2931583 -0.2360083,0.5291667 -0.5291666,0.5291667 H 1.3229169 c -0.2931583,0 -0.52916661,-0.2360084 -0.52916661,-0.5291667 V 7.4083332 c 0,-0.2931583 0.23600831,-0.5291666 0.52916661,-0.5291666 z" id="rect8703" style="fill:#e2e7fa;fill-opacity:1;stroke:none;stroke-width:0.52916801;stroke-linecap:round;stroke-linejoin:round;stroke-miterlimit:4;stroke-dasharray:none"/><path d="M 3.4395829,6.8791797 V 7.937513 c 0,0.2931583 -0.236008,0.5291667 -0.529166,0.5291667 H 0.79374987 c 0,0.2931583 0.23600803,0.5291666 0.52916703,0.5291666 h 2.116666 c 0.293159,0 0.529167,-0.2360083 0.529167,-0.5291666 V 7.4083464 c 0,-0.2931584 -0.236008,-0.5291667 -0.529167,-0.5291667 z" id="path8705" style="fill:#c4d2f0;fill-opacity:1;stroke:none;stroke-width:0.52916801;stroke-linecap:round;stroke-linejoin:round;stroke-miterlimit:4;stroke-dasharray:none"/><path d="m 13.49375,6.8791666 h 2.116667 c 0.293158,0 0.529166,0.2360083 0.529166,0.5291666 v 1.0583333 c 0,0.2931583 -0.236008,0.5291667 -0.529166,0.5291667 H 13.49375 c -0.293158,0 -0.529167,-0.2360084 -0.529167,-0.5291667 V 7.4083332 c 0,-0.2931583 0.236009,-0.5291666 0.529167,-0.5291666 z" id="rect8699" style="fill:#e2e7fa;fill-opacity:1;stroke:none;stroke-width:0.52916801;stroke-linecap:round;stroke-linejoin:round;stroke-miterlimit:4;stroke-dasharray:none"/><path d="M 15.610416,6.8791797 V 7.937513 c 0,0.2931583 -0.236008,0.5291667 -0.529166,0.5291667 h -2.116667 c 0,0.2931583 0.236008,0.5291666 0.529167,0.5291666 h 2.116666 c 0.293159,0 0.529167,-0.2360083 0.529167,-0.5291666 V 7.4083464 c 0,-0.2931584 -0.236008,-0.5291667 -0.529167,-0.5291667 z" id="path8701" style="fill:#c4d2f0;fill-opacity:1;stroke:none;stroke-width:0.52916801;stroke-linecap:round;stroke-linejoin:round;stroke-miterlimit:4;stroke-dasharray:none"/><path d="m 7.4083337,0.79373699 h 2.1166667 c 0.2931583,0 0.5291666,0.23600831 0.5291666,0.52916661 v 1.0583333 c 0,0.2931583 -0.2360083,0.5291666 -0.5291666,0.5291666 H 7.4083337 c -0.2931583,0 -0.5291666,-0.2360083 -0.5291666,-0.5291666 V 1.3229036 c 0,-0.2931583 0.2360083,-0.52916661 0.5291666,-0.52916661 z" id="rect8692" style="fill:#e2e7fa;fill-opacity:1;stroke:none;stroke-width:0.52916801;stroke-linecap:round;stroke-linejoin:round;stroke-miterlimit:4;stroke-dasharray:none"/><path d="M 9.5249999,0.79374999 V 1.8520833 c 0,0.2931583 -0.2360084,0.5291667 -0.5291667,0.5291667 H 6.8791666 c 0,0.2931583 0.2360083,0.5291666 0.5291666,0.5291666 h 2.1166667 c 0.2931583,0 0.5291671,-0.2360083 0.5291671,-0.5291666 V 1.3229166 c 0,-0.2931583 -0.2360088,-0.52916661 -0.5291671,-0.52916661 z" id="rect8696" style="fill:#c4d2f0;fill-opacity:1;stroke:none;stroke-width:0.52916801;stroke-linecap:round;stroke-linejoin:round;stroke-miterlimit:4;stroke-dasharray:none"/><path d="M 21 22 C 19.892 22 19 22.892 19 24 L 19 28 C 19 29.108 19.892 30 21 30 L 23 30 C 21.892 30 21 29.108 21 28 L 21 24 C 21 22.892 21.892 22 23 22 L 21 22 z " id="path849" style="fill:#f8f8f8;fill-opacity:1;stroke:none;stroke-width:2.00000119;stroke-linecap:round;stroke-linejoin:round;stroke-miterlimit:4;stroke-dasharray:none" transform="scale(0.26458333)"/><path d="m 5.5562499,8.995833 c -0.2931583,0 -0.5291666,0.2360084 -0.5291666,0.5291667 v 1.0583333 c 0,0.293158 0.2360083,0.529167 0.5291666,0.529167 h 0.5291667 c -0.2931583,0 -0.5291667,-0.236009 -0.5291667,-0.529167 V 9.5249997 c 0,-0.2931583 0.2360084,-0.5291667 0.5291667,-0.5291667 z" id="path852" style="fill:#f8f8f8;fill-opacity:1;stroke:none;stroke-width:0.529167;stroke-linecap:round;stroke-linejoin:round;stroke-miterlimit:4;stroke-dasharray:none"/><path d="M 28 3 C 26.892 3 26 3.8920001 26 5 L 26 9 C 26 10.108 26.892 11 28 11 L 30 11 C 28.892 11 28 10.108 28 9 L 28 5 C 28 3.8920001 28.892 3 30 3 L 28 3 z " id="path864" style="fill:#f8f8f8;fill-opacity:1;stroke:none;stroke-width:2.00000501;stroke-linecap:round;stroke-linejoin:round;stroke-miterlimit:4;stroke-dasharray:none" transform="scale(0.26458333)"/><path d="m 1.3229169,6.8791665 c -0.2931583,0 -0.52916661,0.2360084 -0.52916661,0.5291667 v 1.0583333 c 0,0.2931583 0.23600831,0.5291667 0.52916661,0.5291667 h 0.5291667 c -0.2931583,0 -0.5291667,-0.2360084 -0.5291667,-0.5291667 V 7.4083332 c 0,-0.2931583 0.2360084,-0.5291667 0.5291667,-0.5291667 z" id="path867" style="fill:#f8f8f8;fill-opacity:1;stroke:none;stroke-width:0.52916801;stroke-linecap:round;stroke-linejoin:round;stroke-miterlimit:4;stroke-dasharray:none"/><path d="m 7.4083337,12.964571 c -0.2931583,0 -0.5291666,0.236009 -0.5291666,0.529167 v 1.058333 c 0,0.293159 0.2360083,0.529167 0.5291666,0.529167 h 0.5291667 c -0.2931583,0 -0.5291667,-0.236008 -0.5291667,-0.529167 v -1.058333 c 0,-0.293158 0.2360084,-0.529167 0.5291667,-0.529167 z" id="path869" style="fill:#f8f8f8;fill-opacity:1;stroke:none;stroke-width:0.52916801;stroke-linecap:round;stroke-linejoin:round;stroke-miterlimit:4;stroke-dasharray:none"/><path d="m 13.49375,6.8791665 c -0.293158,0 -0.529167,0.236009 -0.529167,0.529167 v 1.058333 c 0,0.293159 0.236009,0.529167 0.529167,0.529167 h 0.529167 c -0.293159,0 -0.529167,-0.236008 -0.529167,-0.529167 v -1.058333 c 0,-0.293158 0.236008,-0.529167 0.529167,-0.529167 z" id="path871" style="fill:#f8f8f8;fill-opacity:1;stroke:none;stroke-width:0.52916801;stroke-linecap:round;stroke-linejoin:round;stroke-miterlimit:4;stroke-dasharray:none"/><path d="m 7.4083867,0.52916666 c -0.43516,0 -0.7932301,0.35804014 -0.7932301,0.79316384 v 1.0582418 c 0,0.4351338 0.3580701,0.7952337 0.7932301,0.7952337 h 0.7927199 v 0.529126 h -0.5271 c -0.1461299,-5.821e-4 -0.26505,0.1174202 -0.2656199,0.2635282 5.821e-4,0.1461177 0.11949,0.2640978 0.2656199,0.2635279 h 1.5859497 c 0.14612,5.82e-4 0.26504,-0.1174102 0.26561,-0.2635279 -5.82e-4,-0.146108 -0.11949,-0.2640982 -0.26561,-0.2635282 H 8.7302667 V 3.175806 h 0.7952996 c 0.43516,0 0.7927197,-0.3600999 0.7927197,-0.7952337 V 1.3223305 c 0,-0.4351237 -0.3575597,-0.79316384 -0.7927197,-0.79316384 z M 9.5255663,1.0588025 c 0.15116,0 0.26355,0.1123906 0.26355,0.263528 v 1.0582418 c 0,0.1511475 -0.11239,0.2655979 -0.26355,0.2655979 H 7.4083867 c -0.1511602,0 -0.2635502,-0.1144504 -0.2635502,-0.2655979 V 1.3223305 c 0,-0.1464178 0.1055701,-0.2567886 0.2565751,-0.263528 z M 5.7009467,2.1914481 c -1.5158,0.698332 -2.7217499,1.9519274 -3.3574199,3.5012983 -0.0558,0.1354188 0.009,0.2903658 0.1447,0.3456914 0.13528,0.055796 0.29018,-0.009 0.34571,-0.1441682 0.5845,-1.4246412 1.6957899,-2.5805949 3.0897397,-3.2227915 0.1327701,-0.061295 0.1906403,-0.2186718 0.1291903,-0.3513707 -0.0449,-0.097292 -0.1440802,-0.1578869 -0.2511502,-0.1534623 -0.0349,0.00201 -0.0692,0.010005 -0.1007699,0.024803 z m 5.1800493,0.1286693 c -0.0615,0.1325589 -0.004,0.2898858 0.12867,0.3513707 1.39395,0.6421963 2.50524,1.7981501 3.08973,3.2227914 0.0555,0.1353888 0.21044,0.1999835 0.34572,0.1441679 0.13479,-0.056096 0.19862,-0.2108423 0.14263,-0.3456911 -0.63568,-1.5493709 -1.83955,-2.8029663 -3.35535,-3.5012982 -0.0315,-0.014798 -0.0655,-0.023198 -0.10026,-0.024803 -0.10707,-0.004 -0.20624,0.056191 -0.25114,0.1534623 z M 5.5567667,5.5563478 c -0.43516,0 -0.7952999,0.3575201 -0.7952999,0.7926439 v 1.0587617 c 0,0.4351238 0.3601399,0.792654 0.7952999,0.792654 v 0.529126 c -0.43516,0 -0.7952999,0.36011 -0.7952999,0.7952337 v 1.0582409 c 0,0.435124 0.3601399,0.793164 0.7952999,0.793164 h 5.8203193 c 0.43516,0 0.79272,-0.35804 0.79272,-0.793164 V 9.5247671 c 0,-0.4351237 -0.35756,-0.7952337 -0.79272,-0.7952337 v -0.529126 c 0.43516,0 0.79272,-0.3575302 0.79272,-0.792654 V 6.3489917 c 0,-0.4351238 -0.35756,-0.7926439 -0.79272,-0.7926439 z m 0,0.5291158 H 6.8786566 V 7.6733512 H 5.5567667 c -0.1511501,0 -0.2656099,-0.1144505 -0.2656099,-0.2655978 V 6.3489917 c 0,-0.1511373 0.1144597,-0.2635281 0.2656099,-0.2635281 z m 1.8515699,0 h 3.9687494 c 0.15115,0 0.26562,0.1123908 0.26562,0.2635281 v 1.0587617 c 0,0.1511473 -0.11447,0.2655978 -0.26562,0.2655978 H 7.4083367 Z M 1.3224067,6.61097 c -0.43516016,0 -0.79324005,0.3575299 -0.79324005,0.7926539 v 1.0587615 c 0,0.435124 0.35807989,0.7926542 0.79324005,0.7926542 h 0.79478 v 0.5291157 h -0.52917 c -0.1469301,-5.82e-4 -0.2661901,0.1186803 -0.26561,0.2655977 2.804e-4,0.146317 0.1192899,0.264618 0.26561,0.264048 H 3.1760366 C 3.3215567,10.313219 3.4393066,10.19526 3.4395867,10.049753 3.4401688,9.9036355 3.3221668,9.7847255 3.1760366,9.7841553 H 2.6463567 V 9.2550396 h 0.79323 c 0.43516,0 0.79272,-0.3575302 0.79272,-0.7926542 V 7.4036239 c 0,-0.435124 -0.35756,-0.7926539 -0.79272,-0.7926539 z m 12.1718593,0 c -0.43516,0 -0.7953,0.3575299 -0.7953,0.7926539 v 1.0587615 c 0,0.435124 0.36014,0.7926542 0.7953,0.7926542 h 0.79272 v 0.5291157 h -0.52917 c -0.14612,5.821e-4 -0.26412,0.1194802 -0.26355,0.2655977 2.91e-4,0.145507 0.11803,0.263478 0.26355,0.264048 h 1.58802 c 0.14633,5.82e-4 0.26533,-0.117731 0.26562,-0.264048 5.82e-4,-0.1469174 -0.11869,-0.2661675 -0.26562,-0.2655977 h -0.52968 V 9.2550396 h 0.7953 c 0.43516,0 0.79271,-0.3575302 0.79271,-0.7926542 V 7.4036239 c 0,-0.435124 -0.35755,-0.7926539 -0.79271,-0.7926539 z M 8.2010565,6.61298 C 8.0555366,6.6135354 7.9377866,6.7315099 7.9375067,6.8770178 7.9369246,7.0231356 8.0549266,7.1420456 8.2010565,7.1426157 h 2.6463495 c 0.14713,8.73e-4 0.26671,-0.1184703 0.26613,-0.2655979 -2.91e-4,-0.1465179 -0.11961,-0.2649081 -0.26613,-0.2640479 z m -2.11564,0.00199 c -0.1461199,-10e-8 -0.2645799,0.1184498 -0.2645799,0.2645678 0,0.1461076 0.11846,0.2645579 0.2645799,0.2645579 0.1461302,0 0.2645899,-0.1184503 0.2645899,-0.2645579 0,-0.146118 -0.1184597,-0.2645679 -0.2645899,-0.2645678 z M 1.3224067,7.1409957 h 2.11718 c 0.1511499,0 0.26562,0.1123807 0.26562,0.263528 v 1.0587618 c 0,0.1511375 -0.1144701,0.2635282 -0.26562,0.2635282 h -2.11718 c -0.15116,0 -0.26355,-0.1123907 -0.26355,-0.2635282 V 7.4045237 c 0,-0.1511373 0.11239,-0.263528 0.26355,-0.263528 z m 12.1718593,0 h 2.11719 c 0.15115,0 0.26355,0.1123807 0.26355,0.263528 v 1.0587618 c 0,0.1511473 -0.1124,0.2635282 -0.26355,0.2635282 h -2.11719 c -0.15115,0 -0.26561,-0.1123907 -0.26561,-0.2635282 V 7.4045237 c 0,-0.1511373 0.11446,-0.263528 0.26561,-0.263528 z M 6.0859368,8.2013074 H 10.847406 V 8.7304331 H 6.0859368 Z M 5.5567667,9.2600692 h 1.32189 v 1.5873668 h -1.32189 c -0.1511501,0 -0.2656099,-0.112381 -0.2656099,-0.263528 V 9.525667 c 0,-0.1511476 0.1144598,-0.2655978 0.2656099,-0.2655978 z m 1.85157,0 h 3.9687493 c 0.15115,0 0.26562,0.1144502 0.26562,0.2655978 v 1.058241 c 0,0.151147 -0.11447,0.263528 -0.26562,0.263528 H 7.4083367 Z m 0.7927199,0.5270561 c -0.1461299,5.82e-4 -0.2641302,0.1194798 -0.2635498,0.2655967 5.556e-4,0.145308 0.1182298,0.262958 0.2635498,0.263528 h 2.6463494 c 0.14632,8.47e-4 0.26556,-0.11721 0.26613,-0.263528 5.82e-4,-0.1471267 -0.119,-0.2664567 -0.26613,-0.2655967 z m -2.1156401,0.003 c -0.1461198,0 -0.2645798,0.1184502 -0.2645798,0.2645577 0,0.146117 0.11846,0.264567 0.2645798,0.264567 0.1461302,0 0.2645899,-0.11845 0.2645899,-0.264567 0,-0.1461075 -0.1184597,-0.2645577 -0.2645899,-0.2645577 z m 4.9438695,3.9327617 c -0.13258,0.0615 -0.1902,0.218812 -0.12868,0.35137 0.0613,0.132769 0.21869,0.190634 0.3514,0.12918 1.32656,-0.616709 2.41327,-1.659312 3.08612,-2.953054 0.0681,-0.12955 0.0181,-0.289776 -0.11162,-0.357581 -0.0372,-0.0194 -0.0785,-0.0297 -0.1204,-0.02998 -0.02799,-2.45e-4 -0.05599,0.004 -0.08269,0.01241 -0.0669,0.0215 -0.12248,0.0687 -0.15451,0.13125 -0.61887,1.189942 -1.61969,2.149272 -2.83962,2.716405 z m -5.3474294,0.480482 c 0.13271,0.0614 0.2901,0.004 0.3514,-0.12918 0.0615,-0.132558 0.004,-0.289886 -0.1286801,-0.35137 -1.2199299,-0.567134 -2.2212699,-1.526464 -2.8401298,-2.716405 -0.0491,-0.0954 -0.15094,-0.151767 -0.257885,-0.142598 -0.034815,0.003 -0.068715,0.01282 -0.099715,0.02892 -0.1303,0.0673 -0.18105,0.22762 -0.11317,0.357569 0.67284,1.293752 1.76162,2.336355 3.0881799,2.953064 z m 1.7264801,-1.504135 c -0.43516,0 -0.7932301,0.36011 -0.7932301,0.795233 v 1.058282 c 0,0.435124 0.3580701,0.793164 0.7932301,0.793164 h 0.7927199 v 0.529126 h -0.5271 c -0.1461299,-5.82e-4 -0.26505,0.11742 -0.2656199,0.263528 -5.821e-4,0.146918 0.1186799,0.266168 0.2656199,0.265598 h 1.5859497 c 0.14693,5.82e-4 0.26619,-0.11868 0.26561,-0.265598 -5.82e-4,-0.146108 -0.11949,-0.264098 -0.26561,-0.263528 H 8.7302167 v -0.529126 h 0.7952996 c 0.43516,0 0.7927197,-0.35804 0.7927197,-0.793164 v -1.058242 c 0,-0.435123 -0.3575597,-0.795233 -0.7927197,-0.795233 z m 2.1171796,0.529636 c 0.15116,0 0.26355,0.11446 0.26355,0.265597 v 1.058282 c 0,0.151148 -0.11239,0.263528 -0.26355,0.263528 H 7.4083367 c -0.1511602,0 -0.2635502,-0.11238 -0.2635502,-0.263528 v -1.058242 c 0,-0.146417 0.1055701,-0.258738 0.2565751,-0.265617 z" id="rect7397" style="color:#000000;display:inline;opacity:1;fill:#66a0fe;stroke-width:0.99999988;stroke-linecap:round;stroke-linejoin:round;fill-opacity:1"/></g></svg>