<?xml version="1.0" ?><svg height="400px" version="1.1" viewBox="0 0 400 400" width="400px" xmlns="http://www.w3.org/2000/svg" xmlns:xlink="http://www.w3.org/1999/xlink"><title/><desc/><defs><path d="M220,270 L334.005979,270 C337.318532,270 340,267.31365 340,263.99987 L340,86.0001305 C340,82.6858997 337.316385,80 334.005979,80 L65.9940209,80 C62.6814684,80 60,82.6863499 60,86.0001305 L60,263.99987 C60,267.3141 62.6836146,270 65.9940209,270 L180,270 L180,300 L220,300 L220,270 L220,270 L220,270 L220,270 Z M130,303.99923 C130,301.790516 131.795632,300 134.001598,300 L265.998402,300 C268.208423,300 270,301.792468 270,303.99923 L270,316.00077 C270,318.209484 268.204368,320 265.998402,320 L134.001598,320 C131.791577,320 130,318.207532 130,316.00077 L130,303.99923 L130,303.99923 L130,303.99923 L130,303.99923 Z" id="path-1"/><filter filterUnits="objectBoundingBox" height="200%" id="filter-2" width="200%" x="-50%" y="-50%"><feOffset dx="0" dy="4" in="SourceAlpha" result="shadowOffsetOuter1"/><feGaussianBlur in="shadowOffsetOuter1" result="shadowBlurOuter1" stdDeviation="2"/><feColorMatrix in="shadowBlurOuter1" type="matrix" values="0 0 0 0 0   0 0 0 0 0   0 0 0 0 0  0 0 0 0.5 0"/></filter><rect height="141" id="path-3" rx="2" width="260" x="70" y="99"/><filter filterUnits="objectBoundingBox" height="200%" id="filter-4" width="200%" x="-50%" y="-50%"><feOffset dx="0" dy="2" in="SourceAlpha" result="shadowOffsetOuter1"/><feGaussianBlur in="shadowOffsetOuter1" result="shadowBlurOuter1" stdDeviation="1"/><feColorMatrix in="shadowBlurOuter1" type="matrix" values="0 0 0 0 0   0 0 0 0 0   0 0 0 0 0  0 0 0 0.5 0"/></filter><circle cx="200" cy="255" id="path-5" r="10"/><filter filterUnits="objectBoundingBox" height="200%" id="filter-6" width="200%" x="-50%" y="-50%"><feOffset dx="0" dy="2" in="SourceAlpha" result="shadowOffsetOuter1"/><feGaussianBlur in="shadowOffsetOuter1" result="shadowBlurOuter1" stdDeviation="2"/><feColorMatrix in="shadowBlurOuter1" type="matrix" values="0 0 0 0 0   0 0 0 0 0   0 0 0 0 0  0 0 0 0.5 0"/></filter></defs><g fill="none" fill-rule="evenodd" id="Page-1" stroke="none" stroke-width="1"><g id="pc"><path d="M200,400 C310.45695,400 400,310.45695 400,200 C400,89.54305 310.45695,0 200,0 C89.54305,0 0,89.54305 0,200 C0,310.45695 89.54305,400 200,400 Z" fill="#AAD8B0" id="Oval-6"/><g id="Combined-Shape"><use fill="black" fill-opacity="1" filter="url(#filter-2)" xlink:href="#path-1"/><use fill="#697F9B" fill-rule="evenodd" xlink:href="#path-1"/></g><g id="Rectangle-42"><use fill="black" fill-opacity="1" filter="url(#filter-4)" xlink:href="#path-3"/><use fill="#DCF0E6" fill-rule="evenodd" xlink:href="#path-3"/></g><g id="Oval-45"><use fill="black" fill-opacity="1" filter="url(#filter-6)" xlink:href="#path-5"/><use fill="#FBF0B8" fill-rule="evenodd" xlink:href="#path-5"/></g></g></g></svg>