<?xml version="1.0" ?><svg viewBox="0 0 60 60" xmlns="http://www.w3.org/2000/svg"><defs><style>.a{fill:none;stroke:#1c4db8;stroke-linecap:round;stroke-linejoin:round;stroke-width:1.5px;}.b{fill:#e82e5f;}</style></defs><title/><path class="a" d="M3.386,31.418C1.3,32.779.906,33.857,1.02,34.352L3.862,52.119c.239,1.031,2.313,1.4,3.371,1.4h0"/><path class="a" d="M32.2,56.932H10.307a3.074,3.074,0,0,1-3.074-3.075v-.338H32.2Z"/><path class="a" d="M54.351,56.932H32.2V53.519H54.351a1.537,1.537,0,0,1,1.537,1.537V55.4A1.537,1.537,0,0,1,54.351,56.932Z"/><polyline class="a" points="37.763 37.76 40.506 53.519 7.233 53.519 3.386 31.418 11.649 31.418"/><polyline class="a" points="18.566 33.78 6.814 33.78 9.596 51.293 37.447 51.293 36.185 43.346"/><line class="a" x1="29.323" x2="28.538" y1="29.504" y2="27.472"/><path class="a" d="M32.008,41.314a2.851,2.851,0,0,0,1.028-.257h0a2.862,2.862,0,0,0,1.186-4.195l-.415-.62"/><path class="b" d="M44.119,12.22a.4.4,0,0,0,.2.768L54.45,11.91a.4.4,0,0,0,.271-.649L53.308,9.49a.4.4,0,0,1,.125-.6l5.6-2.973a.4.4,0,0,0-.242-.751L47.1,6.773a.4.4,0,0,0-.244.663l2,2.243a.4.4,0,0,1-.145.637Z"/><path class="b" d="M46.014,16.911a.191.191,0,0,0-.205.317l3.665,3.185a.192.192,0,0,0,.191.035.2.2,0,0,0,.123-.151l.159-1.068a.188.188,0,0,1,.09-.135.19.19,0,0,1,.161-.017l2.855.989a.191.191,0,0,0,.183-.328l-4.357-3.557a.194.194,0,0,0-.2-.028.191.191,0,0,0-.116.158l-.133,1.426a.187.187,0,0,1-.094.147.19.19,0,0,1-.175.009Z"/><path class="b" d="M41.066,7.794a.191.191,0,0,0,.32.2L44.53,4.3a.191.191,0,0,0-.119-.313l-1.069-.147a.192.192,0,0,1-.155-.25L44.145.72a.191.191,0,0,0-.33-.179l-3.509,4.4a.191.191,0,0,0,.133.309l1.427.117a.192.192,0,0,1,.159.268Z"/><path class="a" d="M42.119,19.369A24.373,24.373,0,0,1,42.3,24.79"/><path class="a" d="M34.307,6.33a22.748,22.748,0,0,1,3.771,3.821"/><path class="a" d="M35.964,13.828l3-1.338a2.265,2.265,0,0,1,2.982,1.171l.129.307A2.266,2.266,0,0,1,40.9,16.95l-2.949,1.314"/><path class="a" d="M34.8,6.947a1.509,1.509,0,0,0-2.514-.4A139.439,139.439,0,0,1,14.267,22.283a4.1,4.1,0,0,0-1.394,5.027h0a4.1,4.1,0,0,0,4.608,2.346c6.695-1.443,18.381-3.75,23.3-3.636A1.509,1.509,0,0,0,42.2,23.907,24.206,24.206,0,0,1,34.8,6.947Z"/><line class="a" x1="24.701" x2="23.82" y1="30.641" y2="28.352"/><path class="a" d="M27.625,31.728a.611.611,0,0,0,.177.72l2.4,4.807a1.278,1.278,0,0,0,1.758.431l1.291-.773a1.277,1.277,0,0,0,.432-1.758l-2.722-5.162a1.321,1.321,0,0,0-1.759-.428c-1.373.844-1.248.768-1.261.777"/><path class="a" d="M16.542,45.264a32.319,32.319,0,0,0,5.782-5.975c1.164-.7.134-4.893.144-5.493a3.288,3.288,0,0,1,1.586-2.763l2.109-1.278a1.233,1.233,0,0,1,1.277,2.109l-2.069,1.254,3.812,7.9c-.493,1.1-.765,1.455-2.347,1.574-1.6,2.048-2.768,3.875-3.878,5.5"/></svg>